<?xml version="1.0" encoding="UTF-8"?><!DOCTYPE svg PUBLIC "-//W3C//DTD SVG 1.1//EN" "http://www.w3.org/Graphics/SVG/1.1/DTD/svg11.dtd"><svg xmlns="http://www.w3.org/2000/svg" xmlns:xlink="http://www.w3.org/1999/xlink" xmlns:dc="http://purl.org/dc/elements/1.1/" xmlns:cc="http://creativecommons.org/ns#" xmlns:rdf="http://www.w3.org/1999/02/22-rdf-syntax-ns#" xmlns:svg="http://www.w3.org/2000/svg" xmlns:sodipodi="http://sodipodi.sourceforge.net/DTD/sodipodi-0.dtd" xmlns:inkscape="http://www.inkscape.org/namespaces/inkscape"><symbol id="facebook" viewBox="0 0 512 512">
<path style="fill:#385C8E;" d="M134.941,272.691h56.123v231.051c0,4.562,3.696,8.258,8.258,8.258h95.159
	c4.562,0,8.258-3.696,8.258-8.258V273.78h64.519c4.195,0,7.725-3.148,8.204-7.315l9.799-85.061c0.269-2.34-0.472-4.684-2.038-6.44
	c-1.567-1.757-3.81-2.763-6.164-2.763h-74.316V118.88c0-16.073,8.654-24.224,25.726-24.224c2.433,0,48.59,0,48.59,0
	c4.562,0,8.258-3.698,8.258-8.258V8.319c0-4.562-3.696-8.258-8.258-8.258h-66.965C309.622,0.038,308.573,0,307.027,0
	c-11.619,0-52.006,2.281-83.909,31.63c-35.348,32.524-30.434,71.465-29.26,78.217v62.352h-58.918c-4.562,0-8.258,3.696-8.258,8.258
	v83.975C126.683,268.993,130.379,272.691,134.941,272.691z"/>
<g>
</g>
<g>
</g>
<g>
</g>
<g>
</g>
<g>
</g>
<g>
</g>
<g>
</g>
<g>
</g>
<g>
</g>
<g>
</g>
<g>
</g>
<g>
</g>
<g>
</g>
<g>
</g>
<g>
</g>
</symbol><symbol id="github" viewBox="0 0 438.536 438.536">
<g>
	<g>
		<path d="M158.173,352.599c-3.049,0.568-4.381,1.999-3.999,4.281c0.38,2.283,2.093,3.046,5.138,2.283
			c3.049-0.76,4.38-2.095,3.997-3.997C162.931,353.074,161.218,352.216,158.173,352.599z"/>
		<path d="M141.898,354.885c-3.046,0-4.568,1.041-4.568,3.139c0,2.474,1.619,3.518,4.853,3.138c3.046,0,4.57-1.047,4.57-3.138
			C146.753,355.553,145.134,354.502,141.898,354.885z"/>
		<path d="M119.629,354.022c-0.76,2.095,0.478,3.519,3.711,4.284c2.855,1.137,4.664,0.568,5.424-1.714
			c0.572-2.091-0.666-3.61-3.711-4.568C122.197,351.265,120.39,351.922,119.629,354.022z"/>
		<path d="M414.41,24.123C398.326,8.042,378.964,0,356.309,0H82.225C59.577,0,40.208,8.042,24.123,24.123
			C8.042,40.207,0,59.576,0,82.225v274.088c0,22.65,8.042,42.017,24.123,58.098c16.084,16.084,35.454,24.126,58.102,24.126h63.953
			c4.184,0,7.327-0.144,9.42-0.424c2.092-0.288,4.184-1.526,6.279-3.717c2.096-2.187,3.14-5.376,3.14-9.562
			c0-0.568-0.05-7.046-0.144-19.417c-0.097-12.375-0.144-22.176-0.144-29.41l-6.567,1.143c-4.187,0.76-9.469,1.095-15.846,0.999
			c-6.374-0.096-12.99-0.76-19.841-1.998c-6.855-1.239-13.229-4.093-19.13-8.562c-5.898-4.477-10.085-10.328-12.56-17.559
			l-2.856-6.571c-1.903-4.373-4.899-9.229-8.992-14.554c-4.093-5.332-8.232-8.949-12.419-10.852l-1.999-1.428
			c-1.331-0.951-2.568-2.098-3.711-3.429c-1.141-1.335-1.997-2.669-2.568-3.997c-0.571-1.335-0.097-2.43,1.427-3.289
			c1.524-0.855,4.281-1.279,8.28-1.279l5.708,0.855c3.808,0.76,8.516,3.042,14.134,6.851c5.614,3.806,10.229,8.754,13.846,14.843
			c4.38,7.806,9.657,13.75,15.846,17.843c6.184,4.097,12.419,6.143,18.699,6.143s11.704-0.476,16.274-1.424
			c4.565-0.954,8.848-2.385,12.847-4.288c1.713-12.751,6.377-22.559,13.988-29.41c-10.848-1.143-20.602-2.854-29.265-5.14
			c-8.658-2.286-17.605-5.995-26.835-11.136c-9.234-5.14-16.894-11.512-22.985-19.13c-6.09-7.618-11.088-17.61-14.987-29.978
			c-3.901-12.375-5.852-26.652-5.852-42.829c0-23.029,7.521-42.637,22.557-58.814c-7.044-17.32-6.379-36.732,1.997-58.242
			c5.52-1.714,13.706-0.428,24.554,3.855c10.85,4.286,18.794,7.951,23.84,10.992c5.046,3.042,9.089,5.614,12.135,7.71
			c17.705-4.949,35.976-7.423,54.818-7.423c18.841,0,37.115,2.474,54.821,7.423l10.849-6.852c7.426-4.57,16.18-8.757,26.269-12.562
			c10.088-3.806,17.795-4.854,23.127-3.14c8.562,21.51,9.328,40.922,2.279,58.241c15.036,16.179,22.559,35.786,22.559,58.815
			c0,16.18-1.951,30.505-5.852,42.969c-3.898,12.467-8.939,22.463-15.13,29.981c-6.184,7.519-13.894,13.843-23.124,18.986
			c-9.232,5.137-18.178,8.853-26.84,11.132c-8.661,2.286-18.414,4.004-29.263,5.147c9.891,8.562,14.839,22.072,14.839,40.538v68.238
			c0,3.237,0.472,5.852,1.424,7.851c0.958,1.998,2.478,3.374,4.571,4.141c2.102,0.76,3.949,1.235,5.571,1.424
			c1.622,0.191,3.949,0.287,6.995,0.287h63.953c22.648,0,42.018-8.042,58.095-24.126c16.084-16.084,24.126-35.454,24.126-58.102
			V82.225C438.533,59.576,430.491,40.204,414.41,24.123z"/>
		<path d="M86.793,319.195c-1.331,0.948-1.141,2.471,0.572,4.565c1.906,1.902,3.427,2.189,4.57,0.855
			c1.331-0.948,1.141-2.471-0.575-4.569C89.458,318.336,87.936,318.049,86.793,319.195z"/>
		<path d="M77.374,312.057c-0.57,1.335,0.096,2.478,1.999,3.426c1.521,0.955,2.762,0.767,3.711-0.568
			c0.57-1.335-0.096-2.478-1.999-3.433C79.182,310.91,77.945,311.102,77.374,312.057z"/>
		<path d="M95.646,330.331c-1.715,0.948-1.715,2.666,0,5.137c1.713,2.478,3.328,3.142,4.853,1.998c1.714-1.334,1.714-3.142,0-5.427
			C98.978,329.571,97.359,328.993,95.646,330.331z"/>
		<path d="M105.641,343.174c-1.714,1.526-1.336,3.327,1.142,5.428c2.281,2.279,4.185,2.566,5.708,0.849
			c1.524-1.519,1.143-3.326-1.142-5.42C109.068,341.751,107.164,341.463,105.641,343.174z"/>
	</g>
</g>
<g>
</g>
<g>
</g>
<g>
</g>
<g>
</g>
<g>
</g>
<g>
</g>
<g>
</g>
<g>
</g>
<g>
</g>
<g>
</g>
<g>
</g>
<g>
</g>
<g>
</g>
<g>
</g>
<g>
</g>
</symbol><symbol id="icon-logo" viewBox="0 0 118.2 118.2">
  <metadata id="metadata3342">
    <rdf:RDF>
      <cc:Work rdf:about="">
        <dc:format>image/svg+xml</dc:format>
        <dc:type rdf:resource="http://purl.org/dc/dcmitype/StillImage"/>
        <dc:title/>
      </cc:Work>
    </rdf:RDF>
  </metadata>
  
  <sodipodi:namedview pagecolor="#ffffff" bordercolor="#666666" borderopacity="1" objecttolerance="10" gridtolerance="10" guidetolerance="10" inkscape:pageopacity="0" inkscape:pageshadow="2" inkscape:window-width="1920" inkscape:window-height="1051" id="namedview3338" showgrid="false" inkscape:zoom="7.2335027" inkscape:cx="42.164911" inkscape:cy="59.099998" inkscape:window-x="-9" inkscape:window-y="-9" inkscape:window-maximized="1" inkscape:current-layer="svg3336" inkscape:object-paths="true"/>
  <path style="stroke:none;stroke-width:1px;stroke-linecap:butt;stroke-linejoin:miter;stroke-opacity:1" d="m 51.731508,113.98016 c -2.687274,-0.18459 -6.443223,-0.87076 -9.033204,-1.65028 -9.779867,-2.94349 -16.895807,-7.08198 -23.846677,-13.868754 -5.101294,-4.98086 -8.403458,-9.44631 -11.4028061,-15.41977 -2.7448205,-5.46655 -5.0041937,-13.02147 -5.4116903,-18.09567 -0.185068,-2.304484 -0.185068,-11.134312 0,-13.438795 C 2.3531817,47.571388 4.0296062,41.293822 6.0455772,36.496803 11.214901,24.196356 20.736129,14.060332 32.818639,7.9949747 c 5.572095,-2.797163 13.091451,-5.070897 18.186609,-5.499341 1.082378,-0.09102 4.202222,-0.124045 8.087368,-0.08562 1.288497,0.01274 2.323846,0.02423 3.170997,0.03746 2.948068,0.04604 3.617007,0.11315 4.744035,0.327583 10.846942,2.063784 20.750005,6.875532 28.157958,13.6815253 1.984658,1.82339 5.299244,5.356261 6.892624,7.346547 1.9077,2.382899 4.41262,6.355082 5.98742,9.494589 1.75268,3.494131 3.37132,7.97558 4.37297,12.107144 1.15519,4.764918 1.1087,4.227274 1.1087,12.821423 0,8.599361 0.0418,8.116131 -1.10617,12.787711 -1.81458,7.38434 -4.89602,14.16165 -8.99819,19.79058 -4.721811,6.4792 -10.547349,11.813484 -17.165677,15.718144 -6.781152,4.00071 -15.336784,6.89945 -21.869374,7.40957 -1.673464,0.13067 -10.940631,0.16573 -12.656401,0.0479 z m 12.760952,-2.9496 c 3.804094,-0.34808 9.016483,-1.7025 13.574836,-3.52737 2.022828,-0.8098 5.814249,-2.77718 7.852959,-4.07492 3.79225,-2.41395 6.247198,-4.399184 9.642195,-7.797314 6.96268,-6.96909 11.55655,-15.09982 13.86955,-24.54783 1.11076,-4.53719 1.48314,-7.74175 0.89959,-7.74175 -0.10516,0 -2.1353,1.9142 -4.51143,4.25377 -5.38032,5.29757 -7.374541,7.03004 -10.264794,8.91752 -4.249158,2.7749 -7.757644,3.69188 -10.376543,2.71203 -0.863394,-0.32304 -1.664,-1.1361 -1.792346,-1.82024 -0.107268,-0.57179 0.227479,-2.4968 1.325708,-7.62365 1.60535,-7.494251 1.62997,-8.66181 0.198269,-9.402223 -1.4464,-0.748015 -3.383896,0.128552 -6.174761,2.793601 -3.309757,3.160542 -7.375771,9.256192 -9.171212,13.749202 -0.825976,2.06696 -1.144787,2.38378 -2.539775,2.52387 -0.966954,0.0971 -2.313372,-0.007 -2.424749,-0.18687 -0.03181,-0.0515 0.06222,-0.58997 0.208947,-1.1967 0.395283,-1.63453 0.954533,-4.71613 0.954533,-5.25969 0,-0.88166 -0.592876,-0.60172 -3.742011,1.76685 -4.094339,3.07948 -6.796171,4.46288 -9.659379,4.94583 -2.086953,0.35201 -4.330564,-0.33116 -5.041809,-1.53519 -0.370461,-0.62714 -0.25618,-1.569 0.744534,-6.13622 1.463665,-6.68011 1.667213,-7.71184 1.74551,-8.847504 0.09366,-1.358496 -0.126492,-1.851874 -1.131811,-2.536476 -0.834919,-0.568564 -1.375764,-0.547734 -2.774592,0.106857 -0.750801,0.351342 -1.223367,0.727197 -2.326737,1.850567 -1.498872,1.526046 -2.437279,2.772036 -3.872006,5.141146 -1.193813,1.97132 -3.547598,6.70771 -4.564622,9.18516 -0.439544,1.07072 -0.933219,2.0914 -1.097055,2.26818 -0.243297,0.26252 -0.486599,0.33558 -1.327724,0.39866 -0.566413,0.0425 -1.340893,0.0368 -1.721069,-0.0126 l -0.691228,-0.0898 0.04086,-0.62146 c 0.02247,-0.3418 0.50945,-2.79882 1.08218,-5.46004 1.835922,-8.53076 1.999196,-9.417829 2.003838,-10.886916 0.0036,-1.148956 -0.178602,-1.477422 -1.055084,-1.901718 -2.416819,-1.169962 -5.92642,1.855376 -9.543344,8.226524 -1.119214,1.97147 -2.165015,4.14844 -3.488585,7.26192 -1.123109,2.64194 -1.464414,3.26772 -1.848771,3.38971 -0.401276,0.12736 -3.083071,0.12531 -3.289897,-0.002 -0.120921,-0.0747 -0.146865,-0.28389 -0.08413,-0.67823 0.181129,-1.13855 4.190037,-19.151372 5.347659,-24.028106 0.228914,-0.964354 0.493786,-1.817756 0.588604,-1.896446 0.53153,-0.44113 6.305136,-0.848075 7.461421,-0.525909 0.367874,0.102498 0.388097,0.144334 0.300701,0.622105 -0.05153,0.28172 -0.737185,2.47185 -1.523669,4.866955 -1.649487,5.02323 -1.700778,5.219781 -1.392957,5.337902 0.314004,0.120495 0.743118,-0.246276 4.091261,-3.496864 3.478666,-3.377309 5.039754,-4.709672 6.563249,-5.601628 2.883252,-1.688051 5.168821,-2.216578 6.651196,-1.53806 0.58858,0.269407 0.745063,0.694506 0.74425,2.021821 -6.91e-4,1.064421 -0.319887,5.250548 -0.481831,6.318232 -0.103784,0.684233 0.08666,0.940084 0.525084,0.705444 0.185368,-0.09921 1.46546,-1.259775 2.84465,-2.579043 3.733141,-3.57095 6.350905,-5.415223 8.9706,-6.319987 2.13886,-0.738697 3.514718,-0.547283 4.295107,0.597553 0.289018,0.423989 0.317436,0.590422 0.258378,1.513227 -0.08512,1.32998 -0.599546,3.05178 -2.923001,9.783284 -3.290818,9.53412 -3.541012,10.81491 -2.260411,11.57138 0.294817,0.17415 0.691889,0.25334 1.244202,0.24814 2.033098,-0.0191 5.009959,-2.18213 10.163094,-7.38447 l 1.690968,-1.70711 1.3919,-6.221051 c 6.661316,-29.772553 9.386412,-41.849929 9.460386,-41.927573 0.06254,-0.06564 2.019159,1.288272 3.04648,2.108067 1.302999,1.039784 3.512236,3.231394 4.514635,4.478613 0.914545,1.137906 1.360803,1.925129 1.360803,2.40053 0,0.387249 -2.367961,7.481084 -5.942563,17.802469 -3.648345,10.534312 -5.670068,16.582152 -5.670068,16.9616 0,0.251732 0.07612,0.319101 0.360531,0.319101 0.277656,0 0.650447,-0.30984 1.621745,-1.347894 2.731161,-2.918871 5.603074,-5.664075 6.869476,-6.566399 1.619348,-1.1538 3.992016,-2.348873 5.456669,-2.74843 1.309874,-0.357335 3.021421,-0.413848 3.993076,-0.131845 1.340106,0.388937 2.164018,1.645124 1.944498,2.964699 -0.05233,0.314586 -0.809376,2.687133 -1.682315,5.272326 -3.39248,10.046747 -4.352063,13.021577 -4.425011,13.718077 -0.07306,0.69761 -0.05667,0.74206 0.466763,1.26549 1.33184,1.33184 2.959144,0.97477 6.001251,-1.31682 3.365094,-2.53489 7.078244,-6.56565 12.702634,-13.789164 l 2.24813,-2.887329 -0.09,-1.674776 c -0.21634,-4.027579 -0.47622,-6.154803 -1.13239,-9.269464 -1.42917,-6.783937 -4.65045,-13.844729 -8.96022,-19.640218 C 93.900328,17.614642 84.841463,11.051828 74.029408,7.5081337 68.033989,5.5431107 65.4242,5.2209867 56.28217,5.3175997 c -5.298499,0.05599 -6.100458,0.09411 -7.497593,0.356323 C 38.057889,7.6871187 29.251952,12.085119 21.457857,19.321864 13.93759,26.304362 8.646358,35.216083 6.1976073,45.023832 5.1062009,49.395139 4.8030069,51.66455 4.7015645,56.221727 4.5082751,64.905016 5.5521087,71.202406 8.3202553,78.053086 14.048255,92.228896 25.826549,103.521 39.980631,108.40657 c 3.696571,1.27595 8.928815,2.50448 12.027368,2.82404 0.971914,0.10023 10.950137,-0.0597 12.484461,-0.20005 z" id="path3349" inkscape:connector-curvature="0" sodipodi:nodetypes="cssssssccsssssssssssscccsssssssssssssssssssssssssssssccsscsssscsssscssssscscsssssssscscsssssssssscsssssccsssssssssssc"/>
</symbol><symbol id="linkedin" viewBox="0 0 438.536 438.536">
<g>
	<path d="M414.41,24.123C398.333,8.042,378.963,0,356.315,0H82.228C59.58,0,40.21,8.042,24.126,24.123
		C8.045,40.207,0.003,59.576,0.003,82.225v274.084c0,22.647,8.042,42.018,24.123,58.102c16.084,16.084,35.454,24.126,58.102,24.126
		h274.084c22.648,0,42.018-8.042,58.095-24.126c16.084-16.084,24.126-35.454,24.126-58.102V82.225
		C438.532,59.576,430.49,40.204,414.41,24.123z M133.618,367.157H67.666V169.016h65.952V367.157z M127.626,132.332
		c-6.851,6.567-15.893,9.851-27.124,9.851h-0.288c-10.848,0-19.648-3.284-26.407-9.851c-6.76-6.567-10.138-14.703-10.138-24.41
		c0-9.897,3.476-18.083,10.421-24.556c6.95-6.471,15.942-9.708,26.98-9.708c11.039,0,19.89,3.237,26.553,9.708
		c6.661,6.473,10.088,14.659,10.277,24.556C137.899,117.625,134.477,125.761,127.626,132.332z M370.873,367.157h-65.952v-105.92
		c0-29.879-11.036-44.823-33.116-44.823c-8.374,0-15.42,2.331-21.128,6.995c-5.715,4.661-9.996,10.324-12.847,16.991
		c-1.335,3.422-1.999,8.75-1.999,15.981v110.775h-65.952c0.571-119.529,0.571-185.579,0-198.142h65.952v27.974
		c13.867-21.681,33.558-32.544,59.101-32.544c22.84,0,41.21,7.52,55.104,22.554c13.895,15.037,20.841,37.214,20.841,66.519v113.64
		H370.873z"/>
</g>
<g>
</g>
<g>
</g>
<g>
</g>
<g>
</g>
<g>
</g>
<g>
</g>
<g>
</g>
<g>
</g>
<g>
</g>
<g>
</g>
<g>
</g>
<g>
</g>
<g>
</g>
<g>
</g>
<g>
</g>
</symbol><symbol id="twitter" viewBox="0 0 438.536 438.536">
<g>
	<path d="M414.41,24.123C398.333,8.042,378.963,0,356.315,0H82.228C59.58,0,40.21,8.042,24.126,24.123
		C8.045,40.207,0.003,59.576,0.003,82.225v274.084c0,22.647,8.042,42.018,24.123,58.102c16.084,16.084,35.454,24.126,58.102,24.126
		h274.084c22.648,0,42.018-8.042,58.095-24.126c16.084-16.084,24.126-35.454,24.126-58.102V82.225
		C438.532,59.576,430.49,40.204,414.41,24.123z M335.471,168.735c0.191,1.713,0.288,4.278,0.288,7.71
		c0,15.989-2.334,32.025-6.995,48.104c-4.661,16.087-11.8,31.504-21.416,46.254c-9.606,14.749-21.074,27.791-34.396,39.115
		c-13.325,11.32-29.311,20.365-47.968,27.117c-18.648,6.762-38.637,10.143-59.953,10.143c-33.116,0-63.76-8.952-91.931-26.836
		c4.568,0.568,9.329,0.855,14.275,0.855c27.6,0,52.439-8.565,74.519-25.7c-12.941-0.185-24.506-4.179-34.688-11.991
		c-10.185-7.803-17.273-17.699-21.271-29.691c4.947,0.76,8.658,1.137,11.132,1.137c4.187,0,9.042-0.76,14.56-2.279
		c-13.894-2.669-25.598-9.562-35.115-20.697c-9.519-11.136-14.277-23.84-14.277-38.114v-0.571
		c10.085,4.755,19.602,7.229,28.549,7.422c-17.321-11.613-25.981-28.265-25.981-49.963c0-10.66,2.758-20.747,8.278-30.264
		c15.035,18.464,33.311,33.213,54.816,44.252c21.507,11.038,44.54,17.227,69.092,18.558c-0.95-3.616-1.427-8.186-1.427-13.704
		c0-16.562,5.853-30.692,17.56-42.399c11.703-11.706,25.837-17.561,42.394-17.561c17.515,0,32.079,6.283,43.688,18.846
		c13.134-2.474,25.892-7.33,38.26-14.56c-4.757,14.652-13.613,25.788-26.55,33.402c12.368-1.716,23.88-4.95,34.537-9.708
		C357.458,149.793,347.462,160.166,335.471,168.735z"/>
</g>
<g>
</g>
<g>
</g>
<g>
</g>
<g>
</g>
<g>
</g>
<g>
</g>
<g>
</g>
<g>
</g>
<g>
</g>
<g>
</g>
<g>
</g>
<g>
</g>
<g>
</g>
<g>
</g>
<g>
</g>
</symbol></svg>