<svg xmlns="http://www.w3.org/2000/svg" xmlns:xlink="http://www.w3.org/1999/xlink" version="1.1" x="0px" y="0px" viewBox="0 0 100 100" enable-background="new 0 0 100 100" xml:space="preserve"><g><path d="M52.25,14.5C32.813,14.5,17,30.313,17,49.75C17,69.187,32.813,85,52.25,85C71.687,85,87.5,69.187,87.5,49.75   C87.5,30.313,71.687,14.5,52.25,14.5z M52.25,82C34.467,82,20,67.532,20,49.75C20,31.967,34.467,17.5,52.25,17.5   c17.782,0,32.25,14.467,32.25,32.25C84.5,67.532,70.032,82,52.25,82z"/><path d="M71.031,32.37c-0.569-0.602-1.519-0.628-2.12-0.058L52.417,47.934L35.923,32.312c-0.603-0.571-1.551-0.545-2.12,0.058   c-0.57,0.601-0.544,1.551,0.058,2.12L50.236,50L33.86,65.51c-0.602,0.569-0.627,1.519-0.058,2.12   c0.295,0.312,0.691,0.469,1.089,0.469c0.37,0,0.741-0.137,1.031-0.411l16.494-15.622l16.494,15.622   c0.29,0.275,0.661,0.411,1.031,0.411c0.397,0,0.794-0.157,1.089-0.469c0.57-0.602,0.544-1.551-0.058-2.12L54.598,50l16.376-15.51   C71.575,33.92,71.602,32.971,71.031,32.37z"/></g></svg>