<?xml version="1.0" encoding="UTF-8" standalone="no"?>
<!-- Created with Inkscape (http://www.inkscape.org/) -->

<svg
   xmlns:dc="http://purl.org/dc/elements/1.1/"
   xmlns:cc="http://creativecommons.org/ns#"
   xmlns:rdf="http://www.w3.org/1999/02/22-rdf-syntax-ns#"
   xmlns:svg="http://www.w3.org/2000/svg"
   xmlns="http://www.w3.org/2000/svg"
   xmlns:sodipodi="http://sodipodi.sourceforge.net/DTD/sodipodi-0.dtd"
   xmlns:inkscape="http://www.inkscape.org/namespaces/inkscape"
   id="svg3336"
   version="1.1"
   inkscape:version="0.91 r13725"
   width="118.2"
   height="118.2"
   viewBox="0 0 118.2 118.2"
   sodipodi:docname="mh.svg">
  <metadata
     id="metadata3342">
    <rdf:RDF>
      <cc:Work
         rdf:about="">
        <dc:format>image/svg+xml</dc:format>
        <dc:type
           rdf:resource="http://purl.org/dc/dcmitype/StillImage" />
        <dc:title></dc:title>
      </cc:Work>
    </rdf:RDF>
  </metadata>
  <defs
     id="defs3340" />
  <sodipodi:namedview
     pagecolor="#ffffff"
     bordercolor="#666666"
     borderopacity="1"
     objecttolerance="10"
     gridtolerance="10"
     guidetolerance="10"
     inkscape:pageopacity="0"
     inkscape:pageshadow="2"
     inkscape:window-width="1920"
     inkscape:window-height="1051"
     id="namedview3338"
     showgrid="false"
     inkscape:zoom="7.2335027"
     inkscape:cx="42.164911"
     inkscape:cy="59.099998"
     inkscape:window-x="-9"
     inkscape:window-y="-9"
     inkscape:window-maximized="1"
     inkscape:current-layer="svg3336"
     inkscape:object-paths="true" />
  <path
     style="stroke:none;stroke-width:1px;stroke-linecap:butt;stroke-linejoin:miter;stroke-opacity:1"
     d="m 51.731508,113.98016 c -2.687274,-0.18459 -6.443223,-0.87076 -9.033204,-1.65028 -9.779867,-2.94349 -16.895807,-7.08198 -23.846677,-13.868754 -5.101294,-4.98086 -8.403458,-9.44631 -11.4028061,-15.41977 -2.7448205,-5.46655 -5.0041937,-13.02147 -5.4116903,-18.09567 -0.185068,-2.304484 -0.185068,-11.134312 0,-13.438795 C 2.3531817,47.571388 4.0296062,41.293822 6.0455772,36.496803 11.214901,24.196356 20.736129,14.060332 32.818639,7.9949747 c 5.572095,-2.797163 13.091451,-5.070897 18.186609,-5.499341 1.082378,-0.09102 4.202222,-0.124045 8.087368,-0.08562 1.288497,0.01274 2.323846,0.02423 3.170997,0.03746 2.948068,0.04604 3.617007,0.11315 4.744035,0.327583 10.846942,2.063784 20.750005,6.875532 28.157958,13.6815253 1.984658,1.82339 5.299244,5.356261 6.892624,7.346547 1.9077,2.382899 4.41262,6.355082 5.98742,9.494589 1.75268,3.494131 3.37132,7.97558 4.37297,12.107144 1.15519,4.764918 1.1087,4.227274 1.1087,12.821423 0,8.599361 0.0418,8.116131 -1.10617,12.787711 -1.81458,7.38434 -4.89602,14.16165 -8.99819,19.79058 -4.721811,6.4792 -10.547349,11.813484 -17.165677,15.718144 -6.781152,4.00071 -15.336784,6.89945 -21.869374,7.40957 -1.673464,0.13067 -10.940631,0.16573 -12.656401,0.0479 z m 12.760952,-2.9496 c 3.804094,-0.34808 9.016483,-1.7025 13.574836,-3.52737 2.022828,-0.8098 5.814249,-2.77718 7.852959,-4.07492 3.79225,-2.41395 6.247198,-4.399184 9.642195,-7.797314 6.96268,-6.96909 11.55655,-15.09982 13.86955,-24.54783 1.11076,-4.53719 1.48314,-7.74175 0.89959,-7.74175 -0.10516,0 -2.1353,1.9142 -4.51143,4.25377 -5.38032,5.29757 -7.374541,7.03004 -10.264794,8.91752 -4.249158,2.7749 -7.757644,3.69188 -10.376543,2.71203 -0.863394,-0.32304 -1.664,-1.1361 -1.792346,-1.82024 -0.107268,-0.57179 0.227479,-2.4968 1.325708,-7.62365 1.60535,-7.494251 1.62997,-8.66181 0.198269,-9.402223 -1.4464,-0.748015 -3.383896,0.128552 -6.174761,2.793601 -3.309757,3.160542 -7.375771,9.256192 -9.171212,13.749202 -0.825976,2.06696 -1.144787,2.38378 -2.539775,2.52387 -0.966954,0.0971 -2.313372,-0.007 -2.424749,-0.18687 -0.03181,-0.0515 0.06222,-0.58997 0.208947,-1.1967 0.395283,-1.63453 0.954533,-4.71613 0.954533,-5.25969 0,-0.88166 -0.592876,-0.60172 -3.742011,1.76685 -4.094339,3.07948 -6.796171,4.46288 -9.659379,4.94583 -2.086953,0.35201 -4.330564,-0.33116 -5.041809,-1.53519 -0.370461,-0.62714 -0.25618,-1.569 0.744534,-6.13622 1.463665,-6.68011 1.667213,-7.71184 1.74551,-8.847504 0.09366,-1.358496 -0.126492,-1.851874 -1.131811,-2.536476 -0.834919,-0.568564 -1.375764,-0.547734 -2.774592,0.106857 -0.750801,0.351342 -1.223367,0.727197 -2.326737,1.850567 -1.498872,1.526046 -2.437279,2.772036 -3.872006,5.141146 -1.193813,1.97132 -3.547598,6.70771 -4.564622,9.18516 -0.439544,1.07072 -0.933219,2.0914 -1.097055,2.26818 -0.243297,0.26252 -0.486599,0.33558 -1.327724,0.39866 -0.566413,0.0425 -1.340893,0.0368 -1.721069,-0.0126 l -0.691228,-0.0898 0.04086,-0.62146 c 0.02247,-0.3418 0.50945,-2.79882 1.08218,-5.46004 1.835922,-8.53076 1.999196,-9.417829 2.003838,-10.886916 0.0036,-1.148956 -0.178602,-1.477422 -1.055084,-1.901718 -2.416819,-1.169962 -5.92642,1.855376 -9.543344,8.226524 -1.119214,1.97147 -2.165015,4.14844 -3.488585,7.26192 -1.123109,2.64194 -1.464414,3.26772 -1.848771,3.38971 -0.401276,0.12736 -3.083071,0.12531 -3.289897,-0.002 -0.120921,-0.0747 -0.146865,-0.28389 -0.08413,-0.67823 0.181129,-1.13855 4.190037,-19.151372 5.347659,-24.028106 0.228914,-0.964354 0.493786,-1.817756 0.588604,-1.896446 0.53153,-0.44113 6.305136,-0.848075 7.461421,-0.525909 0.367874,0.102498 0.388097,0.144334 0.300701,0.622105 -0.05153,0.28172 -0.737185,2.47185 -1.523669,4.866955 -1.649487,5.02323 -1.700778,5.219781 -1.392957,5.337902 0.314004,0.120495 0.743118,-0.246276 4.091261,-3.496864 3.478666,-3.377309 5.039754,-4.709672 6.563249,-5.601628 2.883252,-1.688051 5.168821,-2.216578 6.651196,-1.53806 0.58858,0.269407 0.745063,0.694506 0.74425,2.021821 -6.91e-4,1.064421 -0.319887,5.250548 -0.481831,6.318232 -0.103784,0.684233 0.08666,0.940084 0.525084,0.705444 0.185368,-0.09921 1.46546,-1.259775 2.84465,-2.579043 3.733141,-3.57095 6.350905,-5.415223 8.9706,-6.319987 2.13886,-0.738697 3.514718,-0.547283 4.295107,0.597553 0.289018,0.423989 0.317436,0.590422 0.258378,1.513227 -0.08512,1.32998 -0.599546,3.05178 -2.923001,9.783284 -3.290818,9.53412 -3.541012,10.81491 -2.260411,11.57138 0.294817,0.17415 0.691889,0.25334 1.244202,0.24814 2.033098,-0.0191 5.009959,-2.18213 10.163094,-7.38447 l 1.690968,-1.70711 1.3919,-6.221051 c 6.661316,-29.772553 9.386412,-41.849929 9.460386,-41.927573 0.06254,-0.06564 2.019159,1.288272 3.04648,2.108067 1.302999,1.039784 3.512236,3.231394 4.514635,4.478613 0.914545,1.137906 1.360803,1.925129 1.360803,2.40053 0,0.387249 -2.367961,7.481084 -5.942563,17.802469 -3.648345,10.534312 -5.670068,16.582152 -5.670068,16.9616 0,0.251732 0.07612,0.319101 0.360531,0.319101 0.277656,0 0.650447,-0.30984 1.621745,-1.347894 2.731161,-2.918871 5.603074,-5.664075 6.869476,-6.566399 1.619348,-1.1538 3.992016,-2.348873 5.456669,-2.74843 1.309874,-0.357335 3.021421,-0.413848 3.993076,-0.131845 1.340106,0.388937 2.164018,1.645124 1.944498,2.964699 -0.05233,0.314586 -0.809376,2.687133 -1.682315,5.272326 -3.39248,10.046747 -4.352063,13.021577 -4.425011,13.718077 -0.07306,0.69761 -0.05667,0.74206 0.466763,1.26549 1.33184,1.33184 2.959144,0.97477 6.001251,-1.31682 3.365094,-2.53489 7.078244,-6.56565 12.702634,-13.789164 l 2.24813,-2.887329 -0.09,-1.674776 c -0.21634,-4.027579 -0.47622,-6.154803 -1.13239,-9.269464 -1.42917,-6.783937 -4.65045,-13.844729 -8.96022,-19.640218 C 93.900328,17.614642 84.841463,11.051828 74.029408,7.5081337 68.033989,5.5431107 65.4242,5.2209867 56.28217,5.3175997 c -5.298499,0.05599 -6.100458,0.09411 -7.497593,0.356323 C 38.057889,7.6871187 29.251952,12.085119 21.457857,19.321864 13.93759,26.304362 8.646358,35.216083 6.1976073,45.023832 5.1062009,49.395139 4.8030069,51.66455 4.7015645,56.221727 4.5082751,64.905016 5.5521087,71.202406 8.3202553,78.053086 14.048255,92.228896 25.826549,103.521 39.980631,108.40657 c 3.696571,1.27595 8.928815,2.50448 12.027368,2.82404 0.971914,0.10023 10.950137,-0.0597 12.484461,-0.20005 z"
     id="path3349"
     inkscape:connector-curvature="0"
     sodipodi:nodetypes="cssssssccsssssssssssscccsssssssssssssssssssssssssssssccsscsssscsssscssssscscsssssssscscsssssssssscsssssccsssssssssssc" />
</svg>
