<svg xmlns="http://www.w3.org/2000/svg" viewBox="0 0 16 20" x="0px" y="0px"><title>finite-icons</title><ellipse cx="5" cy="10.5" rx="1" ry="1.5" fill="#000000"/><ellipse cx="11" cy="10.5" rx="1" ry="1.5" fill="#000000"/><path d="M14.5,4H14L12.41394,1.62091a0.49747,0.49747,0,0,0-.82788,0L10,4H6L4.41394,1.62091a0.49747,0.49747,0,0,0-.82788,0L2,4H1.5a0.5,0.5,0,0,0-.5.5v10a0.5,0.5,0,0,0,.5.5h13a0.5,0.5,0,0,0,.5-0.5V4.5A0.5,0.5,0,0,0,14.5,4ZM13,13H3V8H13v5Z" fill="#000000"/><text x="0" y="31" fill="#000000" font-size="5px" font-weight="bold" font-family="'Helvetica Neue', Helvetica, Arial-Unicode, Arial, Sans-serif">Created by Doejo</text><text x="0" y="36" fill="#000000" font-size="5px" font-weight="bold" font-family="'Helvetica Neue', Helvetica, Arial-Unicode, Arial, Sans-serif">from the Noun Project</text></svg>