<svg xmlns:dc="http://purl.org/dc/elements/1.1/" xmlns:cc="http://creativecommons.org/ns#" xmlns:rdf="http://www.w3.org/1999/02/22-rdf-syntax-ns#" xmlns:svg="http://www.w3.org/2000/svg" xmlns="http://www.w3.org/2000/svg" xmlns:sodipodi="http://sodipodi.sourceforge.net/DTD/sodipodi-0.dtd" xmlns:inkscape="http://www.inkscape.org/namespaces/inkscape" version="1.1" x="0px" y="0px" viewBox="0 0 100 125"><g transform="translate(0,-952.36218)"><path style="text-indent:0;text-transform:none;direction:ltr;block-progression:tb;baseline-shift:baseline;color:#000000;enable-background:accumulate;" d="m 25.999913,958.36224 c -5.924,0 -11,5.07602 -11,10.99996 l 0,68.0001 c 0,4.9514 4.0486,9 9,9 l 59,0 c 1.0472,-10e-5 1.9999,-0.9529 2,-2 l 0,-66.0001 c 0.014,-1.1325 -0.8153,-2.0209 -2,-2 -3.494,0 -7,-3.5059 -7,-7 0,-3.494 3.506,-6.99996 7,-6.99996 1.0566,0.0149 2,-0.94327 2,-2 0,-1.05673 -0.9434,-2.01494 -2,-2 z m 0,4 48.625,0 c -1.6228,1.92334 -2.625,4.37746 -2.625,6.99996 0,2.6226 1.0022,5.0767 2.625,7 l -48.625,0 c -3.494,0 -7,-3.5059 -7,-7 0,-3.494 3.506,-6.99996 7,-6.99996 z m -7,15.37496 c 1.9233,1.6228 4.3774,2.625 7,2.625 l 55,0 0,62.0001 -57,0 c -2.8046,0 -5,-2.1955 -5,-5 z" fill="#000000" fill-opacity="1" stroke="none" marker="none" visibility="visible" display="inline" overflow="visible"/></g></svg>