<svg xmlns="http://www.w3.org/2000/svg" data-name="Layer 1" viewBox="0 0 100 125" x="0px" y="0px"><title>Artboard 24</title><path d="M11,87.58A4.88,4.88,0,0,1,6.11,82.7v-7a8.47,8.47,0,0,1,3.08-6.58A132.86,132.86,0,0,1,33.14,53.74a.33.33,0,0,0,.18-.3v-7.8a19,19,0,0,1-2.27-6.1c-1.22-.38-2.31-2.35-3.34-6-.94-3.33-1-5.49,0-6.6a2.17,2.17,0,0,1,1.5-.76,16.78,16.78,0,0,1-.5-2v0a18,18,0,0,1,0-8.13,17.72,17.72,0,0,1,4.77-8.37A22.76,22.76,0,0,1,37.83,4a17.21,17.21,0,0,1,4.28-2.19A14.34,14.34,0,0,1,46,1.07a16.14,16.14,0,0,1,9.81,2.08,12.64,12.64,0,0,1,4.71,4.31,6,6,0,0,1,3.55,2.28c2.26,2.87,2.84,7.73,1.73,14.44a16.68,16.68,0,0,1-.5,2,2.16,2.16,0,0,1,1.5.76c.92,1.11.91,3.27,0,6.6-1,3.64-2.13,5.61-3.35,6a18.71,18.71,0,0,1-2.26,6v6a21.71,21.71,0,0,0-3.45,17.94L45,82.26a10.79,10.79,0,0,0-2.91,5.32Zm78.56-33.8A14.89,14.89,0,0,1,71.91,77.39L67.6,81.7l1.86,1.86A3.86,3.86,0,1,1,64,89l-1.86-1.86-3.38,3.38,1.86,1.86a3.86,3.86,0,0,1-5.47,5.47L53.3,96l-2.77-2.77L50,92.68a3.87,3.87,0,0,1,0-5.47l15.9-15.9A14.89,14.89,0,0,1,89.54,53.78ZM83.29,60a6,6,0,1,0,0,8.56A6,6,0,0,0,83.29,60Z"/><text x="0" y="115" fill="#000000" font-size="5px" font-weight="bold" font-family="'Helvetica Neue', Helvetica, Arial-Unicode, Arial, Sans-serif">Created by Gregor Cresnar</text><text x="0" y="120" fill="#000000" font-size="5px" font-weight="bold" font-family="'Helvetica Neue', Helvetica, Arial-Unicode, Arial, Sans-serif">from the Noun Project</text></svg>