<svg xmlns="http://www.w3.org/2000/svg" xmlns:xlink="http://www.w3.org/1999/xlink" viewBox="0 0 100 125" version="1.1" xml:space="preserve" style="" x="0px" y="0px" fill-rule="evenodd" clip-rule="evenodd" stroke-linejoin="round" stroke-miterlimit="1.41421"><g transform="matrix(5.625,0,0,5.625,16.25,5)"><path d="M4,9L3,9L3,8L4,8L4,9ZM4,6L3,6L3,7L4,7L4,6ZM4,4L3,4L3,5L4,5L4,4ZM4,2L3,2L3,3L4,3L4,2ZM12,1L12,13C12,13.55 11.55,14 11,14L6,14L6,16L4.5,14.5L3,16L3,14L1,14C0.45,14 0,13.55 0,13L0,1C0,0.45 0.45,0 1,0L11,0C11.55,0 12,0.45 12,1ZM11,11L1,11L1,13L3,13L3,12L6,12L6,13L11,13L11,11ZM11,1L2,1L2,10L11,10L11,1Z"/></g></svg>