<svg xmlns:dc="http://purl.org/dc/elements/1.1/" xmlns:cc="http://creativecommons.org/ns#" xmlns:rdf="http://www.w3.org/1999/02/22-rdf-syntax-ns#" xmlns:svg="http://www.w3.org/2000/svg" xmlns="http://www.w3.org/2000/svg" xmlns:sodipodi="http://sodipodi.sourceforge.net/DTD/sodipodi-0.dtd" xmlns:inkscape="http://www.inkscape.org/namespaces/inkscape" version="1.1" x="0px" y="0px" viewBox="0 0 100 125"><g transform="translate(0,-952.36218)"><path style="font-size:medium;font-style:normal;font-variant:normal;font-weight:normal;font-stretch:normal;text-indent:0;text-align:start;text-decoration:none;line-height:normal;letter-spacing:normal;word-spacing:normal;text-transform:none;direction:ltr;block-progression:tb;writing-mode:lr-tb;text-anchor:start;baseline-shift:baseline;opacity:1;stroke:none;stroke-width:4;marker:none;visibility:visible;display:inline;overflow:visible;enable-background:accumulate;font-family:Sans;-inkscape-font-specification:Sans" d="M 62.8125 6 A 2.0021961 2.0021961 0 1 0 63 10 L 85 10 L 85 90 L 63 90 A 2.0002 2.0002 0 1 0 63 94 L 87 94 A 2.0002 2.0002 0 0 0 89 92 L 89 8 A 2.0002 2.0002 0 0 0 87 6 L 63 6 A 2.0002 2.0002 0 0 0 62.8125 6 z M 42.90625 25.96875 A 2.0002 2.0002 0 0 0 41.65625 29.46875 L 61.84375 48 L 13 48 L 12.8125 48 C 11.765159 48.049 10.857156 49.04635 10.90625 50.09375 C 10.95534 51.14105 11.952679 52.0493 13 52 L 61.84375 52 L 41.65625 70.5 A 2.0022756 2.0022756 0 1 0 44.34375 73.46875 L 68.34375 51.46875 A 2.0002 2.0002 0 0 0 68.34375 48.5 L 44.34375 26.5 A 2.0002 2.0002 0 0 0 42.90625 25.96875 z " transform="translate(0,952.36218)"/></g></svg>